<?xml version="1.0" encoding="utf-8"?>
<!-- Generator: Adobe Illustrator 15.0.0, SVG Export Plug-In . SVG Version: 6.00 Build 0)  -->
<!DOCTYPE svg PUBLIC "-//W3C//DTD SVG 1.1//EN" "http://www.w3.org/Graphics/SVG/1.1/DTD/svg11.dtd">
<svg version="1.1" id="Layer_1" xmlns="http://www.w3.org/2000/svg" xmlns:xlink="http://www.w3.org/1999/xlink" x="0px" y="0px"
	 width="75px" height="76px" viewBox="0 0 75 76" enable-background="new 0 0 75 76" xml:space="preserve">
<g>
	<path fill="#FFFFFF" d="M35.718,55.086c-0.853-0.663-1.208-1.814-1.084-3.003c0.144-1.374,0.556-2.889,1.5-4.212
		c0.811-1.144,2.31-3.083,2.31-3.083s2.797,4.723,2.343,7.645c-0.153,1.014-0.587,1.727-1.12,2.256
		c3.098-1.041,5.313-3.796,5.04-8.206c-0.428-6.936-9.232-14.675-9.232-14.675s0.168,5.563-1.39,8.421
		c-1.804,3.307-3.867,4.025-4.288,7.692C29.388,51.432,31.765,54.624,35.718,55.086z"/>
	<path fill="#FFFFFF" d="M50.86,19.047v-4.064h-6.675v-3.73h4.745c-0.576-1.134-1.833-1.922-2.914-2.428
		c-2.225-1.027-5.348-1.617-8.792-1.657c-3.415,0.041-6.539,0.63-8.765,1.657c-1.086,0.506-2.351,1.294-2.917,2.428h5.168v3.73h-7.1
		v4.064"/>
	<path fill="#FFFFFF" d="M55.853,18.6c0,0.641-0.542,1.159-1.206,1.159H19.827c-0.666,0-1.208-0.518-1.208-1.159l0,0
		c0-0.636,0.542-1.154,1.208-1.154h34.825C55.311,17.446,55.853,17.964,55.853,18.6L55.853,18.6z"/>
	<path fill="#FFFFFF" d="M15.292,64.833h43.85c0,0,1.402-4.766-11.582-7.732H26.883C26.881,57.101,16.498,59.064,15.292,64.833z"/>
	<g>
		<path fill="#FFFFFF" d="M47.489,59.021H26.831l-0.336-0.388c-5.649-6.564-7.854-15.646-6.375-26.252
			c1.107-7.941,3.833-13.866,3.95-14.11l0.292-0.634h25.649l0.286,0.657c5.892,13.57,4.939,23.787,3.104,29.971
			c-2.015,6.77-5.44,10.272-5.585,10.423L47.489,59.021z M28.63,56.889h17.122c0.848-0.986,3.649-4.152,5.167-9.336
			c1.678-5.732,2.163-15.182-3.142-27.787H26.571C25.002,23.557,17.56,43.479,28.63,56.889z"/>
	</g>
</g>
</svg>
